<svg width="286" height="265" viewBox="0 0 286 265" fill="none" xmlns="http://www.w3.org/2000/svg">
<mask id="path-1-inside-1_362_8973" fill="white">
<path fill-rule="evenodd" clip-rule="evenodd" d="M243.246 10.3683L242.712 10.9103L217.331 36.2763L209.615 35.9504L239.245 6.32082C240.352 5.21423 242.146 5.21013 243.257 6.3125C244.357 7.43532 244.357 9.24159 243.246 10.3683ZM206.734 38.8314L218.52 39.3292L245.387 12.4786L245.383 12.4746C247.646 10.1789 247.646 6.49118 245.387 4.19949C243.103 1.91588 239.403 1.91991 237.124 4.1995L205.545 35.7785L202.664 38.6595L206.734 38.8314ZM283.135 24.5663L283.139 24.5703C286.859 28.2338 286.806 34.2172 283.07 37.8161L243.168 77.6865C240.48 80.3655 237.208 82.3869 233.601 83.5812L208.582 91.8724C205.048 93.0424 201.373 93.7566 197.653 93.9986L156.467 96.6615C155.595 96.718 154.768 97.0851 154.151 97.7024L151.132 100.721L149.011 102.843L146.89 100.721L117.212 71.0289L115.091 68.9071L117.214 66.7866L136.604 47.4105C139.219 44.6992 142.89 43.2709 146.647 43.4928L229.143 46.9747C232.774 47.1361 235.28 49.3915 235.816 53.0186C236.329 56.4925 233.452 59.926 229.547 60.5312L170.943 69.5325C169.067 69.827 167.728 71.5458 167.937 73.4824C168.143 75.3262 169.809 76.7505 171.661 76.6658C171.794 76.6617 171.923 76.6456 172.053 76.6295L230.628 67.6241C238.512 66.4137 244.059 59.3813 242.93 51.9495C242.934 51.9051 242.925 51.8647 242.909 51.8325L269.986 24.7559C270.268 24.4573 270.571 24.187 270.894 23.9288C274.521 21.0682 279.843 21.3224 283.135 24.5663ZM280.95 35.6939L241.049 75.562C238.69 77.9139 235.82 79.6864 232.658 80.7332L232.658 80.7335L207.64 89.0244L207.639 89.0247C204.348 90.1139 200.925 90.7792 197.459 91.0049L197.458 91.005L156.273 93.6678L156.273 93.6678C154.691 93.7703 153.174 94.437 152.03 95.5811L149.011 98.5994L119.334 68.9084L138.725 49.5326L138.744 49.5129L138.764 49.4929C140.768 47.4142 143.585 46.3172 146.47 46.4876L146.495 46.4891L146.52 46.4902L229.01 49.9718L229.013 49.9719C230.224 50.0263 231.065 50.4129 231.628 50.9223C232.192 51.4322 232.668 52.2368 232.849 53.4577C233.071 54.9723 231.712 57.1592 229.088 57.5664L229.087 57.5666L170.488 66.5672L170.478 66.5688C167.022 67.1113 164.572 70.2747 164.955 73.8055L164.956 73.8151C165.336 77.2211 168.353 79.8088 171.777 79.6636C172.046 79.6541 172.287 79.6236 172.403 79.609L172.425 79.6063L172.467 79.601L172.509 79.5946L231.083 70.5894L231.084 70.5893C239.933 69.2303 246.577 61.602 246.048 52.936L272.107 26.8772L272.137 26.8478L272.165 26.8175C272.331 26.6427 272.523 26.4679 272.758 26.2795C275.213 24.3484 278.824 24.5384 281.021 26.6953L281.029 26.7032L281.034 26.7078C283.548 29.1839 283.513 33.2244 280.989 35.6555L280.969 35.6745L280.95 35.6939ZM239.86 44.7061L241.943 42.6238L274.247 10.3199C274.267 10.2918 274.291 10.2677 274.319 10.2396L274.319 10.2392C276.579 7.93945 276.55 4.2316 274.247 1.96816C271.943 -0.295283 268.243 -0.267036 265.976 2.03272L231.117 36.8911L229.489 38.5193L229.471 38.5375L228.268 39.7406L229.446 39.7809C230.363 39.7994 231.268 39.9083 232.149 40.1021C234.309 40.5773 236.327 41.5627 238.031 42.9759C238.672 43.5074 239.268 44.0995 239.811 44.7476V44.7557L239.819 44.7476L239.86 44.7061ZM272.039 8.28531L239.787 40.5366C238.232 39.2779 236.468 38.3086 234.581 37.6698L268.097 4.15404L268.104 4.14654L268.112 4.13899C269.217 3.01839 271.02 3.00364 272.144 4.10813C273.262 5.20604 273.279 7.00824 272.187 8.12842C272.167 8.14849 272.122 8.19392 272.076 8.24449C272.064 8.25697 272.052 8.27058 272.039 8.28531ZM102.682 70.8993L103.093 71.3031L147.026 115.26L147.027 115.261C147.149 115.383 147.15 115.578 147.031 115.702L147.027 115.706L0 260.254V264.461L149.148 117.828C150.443 116.532 150.443 114.434 149.148 113.139L106.908 70.8761L106.654 70.6223L104.787 68.7542L104.784 68.7573L104.783 68.7582C103.48 67.4792 101.398 67.4792 100.103 68.7582L0 167.158V171.364L102.206 70.8976L102.211 70.8928C102.334 70.7713 102.542 70.7619 102.682 70.8993ZM210.733 13.9267C212.524 15.7181 212.524 18.6231 210.733 20.4145L192.916 38.2557L184.524 37.9053L180.453 37.7352L183.333 34.8529L204.249 13.9227C205.23 12.942 206.544 12.4982 207.827 12.5913C208.815 12.6629 209.783 13.0528 210.567 13.761C210.623 13.8115 210.677 13.8635 210.731 13.9172L210.737 13.9227L210.733 13.9267ZM208.61 18.2946L191.724 35.2033L187.404 35.0229L206.37 16.044L206.371 16.0433C206.959 15.4565 207.892 15.4261 208.516 15.9523L208.612 16.0481C209.231 16.6679 209.231 17.6733 208.612 18.2931L208.61 18.2946Z"/>
</mask>
<path fill-rule="evenodd" clip-rule="evenodd" d="M243.246 10.3683L242.712 10.9103L217.331 36.2763L209.615 35.9504L239.245 6.32082C240.352 5.21423 242.146 5.21013 243.257 6.3125C244.357 7.43532 244.357 9.24159 243.246 10.3683ZM206.734 38.8314L218.52 39.3292L245.387 12.4786L245.383 12.4746C247.646 10.1789 247.646 6.49118 245.387 4.19949C243.103 1.91588 239.403 1.91991 237.124 4.1995L205.545 35.7785L202.664 38.6595L206.734 38.8314ZM283.135 24.5663L283.139 24.5703C286.859 28.2338 286.806 34.2172 283.07 37.8161L243.168 77.6865C240.48 80.3655 237.208 82.3869 233.601 83.5812L208.582 91.8724C205.048 93.0424 201.373 93.7566 197.653 93.9986L156.467 96.6615C155.595 96.718 154.768 97.0851 154.151 97.7024L151.132 100.721L149.011 102.843L146.89 100.721L117.212 71.0289L115.091 68.9071L117.214 66.7866L136.604 47.4105C139.219 44.6992 142.89 43.2709 146.647 43.4928L229.143 46.9747C232.774 47.1361 235.28 49.3915 235.816 53.0186C236.329 56.4925 233.452 59.926 229.547 60.5312L170.943 69.5325C169.067 69.827 167.728 71.5458 167.937 73.4824C168.143 75.3262 169.809 76.7505 171.661 76.6658C171.794 76.6617 171.923 76.6456 172.053 76.6295L230.628 67.6241C238.512 66.4137 244.059 59.3813 242.93 51.9495C242.934 51.9051 242.925 51.8647 242.909 51.8325L269.986 24.7559C270.268 24.4573 270.571 24.187 270.894 23.9288C274.521 21.0682 279.843 21.3224 283.135 24.5663ZM280.95 35.6939L241.049 75.562C238.69 77.9139 235.82 79.6864 232.658 80.7332L232.658 80.7335L207.64 89.0244L207.639 89.0247C204.348 90.1139 200.925 90.7792 197.459 91.0049L197.458 91.005L156.273 93.6678L156.273 93.6678C154.691 93.7703 153.174 94.437 152.03 95.5811L149.011 98.5994L119.334 68.9084L138.725 49.5326L138.744 49.5129L138.764 49.4929C140.768 47.4142 143.585 46.3172 146.47 46.4876L146.495 46.4891L146.52 46.4902L229.01 49.9718L229.013 49.9719C230.224 50.0263 231.065 50.4129 231.628 50.9223C232.192 51.4322 232.668 52.2368 232.849 53.4577C233.071 54.9723 231.712 57.1592 229.088 57.5664L229.087 57.5666L170.488 66.5672L170.478 66.5688C167.022 67.1113 164.572 70.2747 164.955 73.8055L164.956 73.8151C165.336 77.2211 168.353 79.8088 171.777 79.6636C172.046 79.6541 172.287 79.6236 172.403 79.609L172.425 79.6063L172.467 79.601L172.509 79.5946L231.083 70.5894L231.084 70.5893C239.933 69.2303 246.577 61.602 246.048 52.936L272.107 26.8772L272.137 26.8478L272.165 26.8175C272.331 26.6427 272.523 26.4679 272.758 26.2795C275.213 24.3484 278.824 24.5384 281.021 26.6953L281.029 26.7032L281.034 26.7078C283.548 29.1839 283.513 33.2244 280.989 35.6555L280.969 35.6745L280.95 35.6939ZM239.86 44.7061L241.943 42.6238L274.247 10.3199C274.267 10.2918 274.291 10.2677 274.319 10.2396L274.319 10.2392C276.579 7.93945 276.55 4.2316 274.247 1.96816C271.943 -0.295283 268.243 -0.267036 265.976 2.03272L231.117 36.8911L229.489 38.5193L229.471 38.5375L228.268 39.7406L229.446 39.7809C230.363 39.7994 231.268 39.9083 232.149 40.1021C234.309 40.5773 236.327 41.5627 238.031 42.9759C238.672 43.5074 239.268 44.0995 239.811 44.7476V44.7557L239.819 44.7476L239.86 44.7061ZM272.039 8.28531L239.787 40.5366C238.232 39.2779 236.468 38.3086 234.581 37.6698L268.097 4.15404L268.104 4.14654L268.112 4.13899C269.217 3.01839 271.02 3.00364 272.144 4.10813C273.262 5.20604 273.279 7.00824 272.187 8.12842C272.167 8.14849 272.122 8.19392 272.076 8.24449C272.064 8.25697 272.052 8.27058 272.039 8.28531ZM102.682 70.8993L103.093 71.3031L147.026 115.26L147.027 115.261C147.149 115.383 147.15 115.578 147.031 115.702L147.027 115.706L0 260.254V264.461L149.148 117.828C150.443 116.532 150.443 114.434 149.148 113.139L106.908 70.8761L106.654 70.6223L104.787 68.7542L104.784 68.7573L104.783 68.7582C103.48 67.4792 101.398 67.4792 100.103 68.7582L0 167.158V171.364L102.206 70.8976L102.211 70.8928C102.334 70.7713 102.542 70.7619 102.682 70.8993ZM210.733 13.9267C212.524 15.7181 212.524 18.6231 210.733 20.4145L192.916 38.2557L184.524 37.9053L180.453 37.7352L183.333 34.8529L204.249 13.9227C205.23 12.942 206.544 12.4982 207.827 12.5913C208.815 12.6629 209.783 13.0528 210.567 13.761C210.623 13.8115 210.677 13.8635 210.731 13.9172L210.737 13.9227L210.733 13.9267ZM208.61 18.2946L191.724 35.2033L187.404 35.0229L206.37 16.044L206.371 16.0433C206.959 15.4565 207.892 15.4261 208.516 15.9523L208.612 16.0481C209.231 16.6679 209.231 17.6733 208.612 18.2931L208.61 18.2946Z" fill="#F5574E"/>
<path d="M280.828 26.537L240.856 75.4037L241.243 75.7203L281.215 26.8536L280.828 26.537ZM242.712 10.9103L243.066 11.264L243.068 11.2613L242.712 10.9103ZM243.246 10.3683L242.89 10.0173L242.89 10.0173L243.246 10.3683ZM217.331 36.2763L217.31 36.7759L217.529 36.7852L217.684 36.63L217.331 36.2763ZM209.615 35.9504L209.262 35.5969L208.457 36.402L209.594 36.45L209.615 35.9504ZM239.245 6.32082L238.892 5.96726L238.892 5.96726L239.245 6.32082ZM243.257 6.3125L243.614 5.96257L243.609 5.95751L243.257 6.3125ZM218.52 39.3292L218.499 39.8288L218.718 39.8381L218.873 39.6829L218.52 39.3292ZM206.734 38.8314L206.713 39.331L206.713 39.331L206.734 38.8314ZM245.387 12.4786L245.74 12.8323L246.094 12.479L245.741 12.1254L245.387 12.4786ZM245.383 12.4746L245.027 12.1235L244.678 12.4767L245.029 12.8278L245.383 12.4746ZM245.387 4.19949L245.743 3.84845L245.74 3.84594L245.387 4.19949ZM237.124 4.1995L237.477 4.55305L237.477 4.55305L237.124 4.1995ZM205.545 35.7785L205.191 35.425L205.191 35.425L205.545 35.7785ZM202.664 38.6595L202.31 38.3059L201.505 39.111L202.643 39.159L202.664 38.6595ZM283.139 24.5703L282.785 24.9234L282.788 24.9265L283.139 24.5703ZM283.135 24.5663L283.489 24.2131L283.486 24.2101L283.135 24.5663ZM283.07 37.8161L282.723 37.4559L282.717 37.4624L283.07 37.8161ZM243.168 77.6865L243.521 78.0406L243.521 78.0402L243.168 77.6865ZM233.601 83.5812L233.444 83.1065L233.444 83.1065L233.601 83.5812ZM208.582 91.8724L208.74 92.347L208.74 92.347L208.582 91.8724ZM197.653 93.9986L197.685 94.4976L197.685 94.4976L197.653 93.9986ZM156.467 96.6615L156.435 96.1625L156.435 96.1626L156.467 96.6615ZM154.151 97.7024L153.797 97.3489L153.797 97.3489L154.151 97.7024ZM151.132 100.721L150.779 100.368L150.779 100.368L151.132 100.721ZM149.011 102.843L148.657 103.196L149.011 103.55L149.364 103.196L149.011 102.843ZM146.89 100.721L146.536 101.074L146.536 101.074L146.89 100.721ZM117.212 71.0289L117.566 70.6755L117.566 70.6755L117.212 71.0289ZM115.091 68.9071L114.738 68.5534L114.384 68.9069L114.738 69.2606L115.091 68.9071ZM117.214 66.7866L116.86 66.4329L116.86 66.4329L117.214 66.7866ZM136.604 47.4105L136.958 47.7642L136.964 47.7575L136.604 47.4105ZM146.647 43.4928L146.617 43.992L146.625 43.9924L146.647 43.4928ZM229.143 46.9747L229.165 46.4752L229.164 46.4752L229.143 46.9747ZM235.816 53.0186L236.311 52.9457L236.311 52.9455L235.816 53.0186ZM229.547 60.5312L229.622 61.0254L229.623 61.0253L229.547 60.5312ZM170.943 69.5325L170.867 69.0383L170.866 69.0385L170.943 69.5325ZM167.937 73.4824L167.44 73.5363L167.44 73.5379L167.937 73.4824ZM171.661 76.6658L171.646 76.1659L171.639 76.1663L171.661 76.6658ZM172.053 76.6295L172.115 77.1258L172.128 77.1237L172.053 76.6295ZM230.628 67.6241L230.552 67.1299L230.552 67.1299L230.628 67.6241ZM242.93 51.9495L242.432 51.9043L242.426 51.9647L242.435 52.0246L242.93 51.9495ZM242.909 51.8325L242.556 51.4789L242.301 51.7338L242.462 52.0561L242.909 51.8325ZM269.986 24.7559L270.34 25.1096L270.349 25.0995L269.986 24.7559ZM270.894 23.9288L270.584 23.5362L270.581 23.5383L270.894 23.9288ZM241.049 75.562L241.402 75.9161L241.403 75.9157L241.049 75.562ZM280.95 35.6939L281.303 36.0476L281.303 36.0475L280.95 35.6939ZM232.658 80.7332L232.81 81.2098L232.816 81.2079L232.658 80.7332ZM232.658 80.7335L232.506 80.2568L232.5 80.2588L232.658 80.7335ZM207.64 89.0244L207.795 89.4995L207.797 89.499L207.64 89.0244ZM207.639 89.0247L207.483 88.5495L207.482 88.55L207.639 89.0247ZM197.459 91.0049L197.427 90.5059L197.426 90.506L197.459 91.0049ZM197.458 91.005L197.49 91.5039L197.491 91.5038L197.458 91.005ZM156.273 93.6678L156.305 94.1667L156.306 94.1667L156.273 93.6678ZM156.273 93.6678L156.241 93.1688L156.24 93.1688L156.273 93.6678ZM152.03 95.5811L151.676 95.2276L151.676 95.2276L152.03 95.5811ZM149.011 98.5994L148.658 98.9529L149.011 99.3066L149.365 98.953L149.011 98.5994ZM119.334 68.9084L118.981 68.5547L118.627 68.9082L118.981 69.2619L119.334 68.9084ZM138.725 49.5326L139.078 49.8863L139.078 49.8862L138.725 49.5326ZM138.744 49.5129L139.098 49.8666L139.104 49.8599L138.744 49.5129ZM138.764 49.4929L138.404 49.1458L138.404 49.1459L138.764 49.4929ZM146.47 46.4876L146.44 46.9867L146.44 46.9867L146.47 46.4876ZM146.495 46.4891L146.465 46.9883L146.474 46.9886L146.495 46.4891ZM146.52 46.4902L146.499 46.9897L146.499 46.9897L146.52 46.4902ZM229.01 49.9718L229.032 49.4723L229.031 49.4722L229.01 49.9718ZM229.013 49.9719L229.035 49.4724L229.035 49.4724L229.013 49.9719ZM231.628 50.9223L231.964 50.5514L231.964 50.5514L231.628 50.9223ZM232.849 53.4577L233.343 53.385L233.343 53.3845L232.849 53.4577ZM229.088 57.5664L229.012 57.0723L229.012 57.0723L229.088 57.5664ZM229.087 57.5666L229.163 58.0608L229.164 58.0606L229.087 57.5666ZM170.488 66.5672L170.412 66.073L170.41 66.0733L170.488 66.5672ZM170.478 66.5688L170.555 67.0627L170.556 67.0627L170.478 66.5688ZM164.955 73.8055L164.458 73.8594L164.458 73.8607L164.955 73.8055ZM164.956 73.8151L164.459 73.8703L164.459 73.8706L164.956 73.8151ZM171.777 79.6636L171.759 79.1639L171.756 79.164L171.777 79.6636ZM172.403 79.609L172.341 79.1129L172.341 79.1129L172.403 79.609ZM172.425 79.6063L172.363 79.1101L172.363 79.1102L172.425 79.6063ZM172.467 79.601L172.529 80.0974L172.543 80.0952L172.467 79.601ZM172.509 79.5946L172.585 80.0888L172.585 80.0888L172.509 79.5946ZM231.083 70.5894L231.009 70.0949L231.007 70.0952L231.083 70.5894ZM231.084 70.5893L231.158 71.0837L231.16 71.0835L231.084 70.5893ZM246.048 52.936L245.695 52.5824L245.536 52.7416L245.549 52.9664L246.048 52.936ZM272.107 26.8772L271.754 26.5235L271.754 26.5237L272.107 26.8772ZM272.137 26.8478L272.49 27.2016L272.5 27.1913L272.137 26.8478ZM272.165 26.8175L271.802 26.4739L271.802 26.4739L272.165 26.8175ZM272.758 26.2795L272.448 25.8865L272.445 25.8896L272.758 26.2795ZM281.021 26.6953L281.372 26.3387L281.371 26.3385L281.021 26.6953ZM281.029 26.7032L281.383 26.3498L281.38 26.3467L281.029 26.7032ZM281.034 26.7078L280.68 27.0612L280.683 27.064L281.034 26.7078ZM280.989 35.6555L280.642 35.2953L280.642 35.2955L280.989 35.6555ZM280.969 35.6745L280.622 35.3145L280.616 35.3208L280.969 35.6745ZM241.943 42.6238L241.589 42.2702L241.589 42.2702L241.943 42.6238ZM239.86 44.7061L240.214 45.0597L240.214 45.0597L239.86 44.7061ZM274.247 10.3199L274.6 10.6735L274.629 10.6442L274.654 10.6105L274.247 10.3199ZM274.319 10.2396L274.672 10.5935L274.682 10.5836L274.319 10.2396ZM274.319 10.2392L273.963 9.88874L273.956 9.89518L274.319 10.2392ZM274.247 1.96816L274.597 1.61149L274.247 1.96816ZM265.976 2.03272L266.329 2.38628L266.332 2.38376L265.976 2.03272ZM231.117 36.8911L231.471 37.2447L231.471 37.2447L231.117 36.8911ZM229.489 38.5193L229.842 38.873L229.843 38.8729L229.489 38.5193ZM229.471 38.5375L229.117 38.1838L229.117 38.1839L229.471 38.5375ZM228.268 39.7406L227.914 39.3871L227.1 40.2009L228.251 40.2403L228.268 39.7406ZM229.446 39.7809L229.429 40.2807L229.436 40.2808L229.446 39.7809ZM232.149 40.1021L232.256 39.6138L232.256 39.6138L232.149 40.1021ZM238.031 42.9759L237.712 43.3608L237.712 43.3608L238.031 42.9759ZM239.811 44.7476H240.311V44.5659L240.194 44.4266L239.811 44.7476ZM239.811 44.7557H239.311V45.9636L240.165 45.1091L239.811 44.7557ZM239.819 44.7476L239.465 44.394L239.465 44.3942L239.819 44.7476ZM239.787 40.5366L239.473 40.9253L239.823 41.2083L240.141 40.8901L239.787 40.5366ZM272.039 8.28531L272.392 8.63886L272.402 8.62909L272.411 8.61879L272.039 8.28531ZM234.581 37.6698L234.228 37.3163L233.659 37.8853L234.421 38.1434L234.581 37.6698ZM268.097 4.15404L267.744 3.80021L267.743 3.80048L268.097 4.15404ZM268.104 4.14654L268.458 4.50038L268.46 4.49768L268.104 4.14654ZM268.112 4.13899L268.468 4.49013L268.468 4.49004L268.112 4.13899ZM272.144 4.10813L271.794 4.4648L271.794 4.4648L272.144 4.10813ZM272.187 8.12842L272.541 8.48189L272.545 8.4774L272.187 8.12842ZM272.076 8.24449L271.708 7.9053L271.708 7.90554L272.076 8.24449ZM103.093 71.3031L103.447 70.9496L103.443 70.9462L103.093 71.3031ZM102.682 70.8993L103.032 70.5425L103.032 70.5424L102.682 70.8993ZM147.026 115.26L146.672 115.614L146.672 115.614L147.026 115.26ZM147.027 115.261L146.673 115.614L146.673 115.614L147.027 115.261ZM147.031 115.702L147.387 116.053L147.391 116.049L147.031 115.702ZM147.027 115.706L147.377 116.063L147.383 116.057L147.027 115.706ZM0 260.254L-0.350535 259.897L-0.5 260.044V260.254H0ZM0 264.461H-0.5V265.654L0.350535 264.818L0 264.461ZM149.148 117.828L149.498 118.184L149.501 118.181L149.148 117.828ZM149.148 113.139L148.794 113.493L148.794 113.493L149.148 113.139ZM106.908 70.8761L107.261 70.5226L107.261 70.5226L106.908 70.8761ZM106.654 70.6223L106.3 70.9758L106.3 70.9758L106.654 70.6223ZM104.787 68.7542L105.141 68.4007L104.787 68.0469L104.433 68.4006L104.787 68.7542ZM104.784 68.7573L104.43 68.4037L104.427 68.4067L104.784 68.7573ZM104.783 68.7582L104.433 69.115L104.789 69.4649L105.139 69.1088L104.783 68.7582ZM100.103 68.7582L100.453 69.1148L100.454 69.114L100.103 68.7582ZM0 167.158L-0.350507 166.801L-0.5 166.948V167.158H0ZM0 171.364H-0.5V172.557L0.350506 171.721L0 171.364ZM102.206 70.8976L102.556 71.2542L102.557 71.2537L102.206 70.8976ZM102.211 70.8928L102.562 71.2488L102.562 71.2485L102.211 70.8928ZM210.733 20.4145L210.379 20.0609L210.379 20.0612L210.733 20.4145ZM210.733 13.9267L210.379 13.5735L210.026 13.927L210.379 14.2803L210.733 13.9267ZM192.916 38.2557L192.895 38.7553L193.114 38.7644L193.27 38.609L192.916 38.2557ZM184.524 37.9053L184.503 38.4048L184.503 38.4048L184.524 37.9053ZM180.453 37.7352L180.099 37.3818L179.294 38.1873L180.432 38.2348L180.453 37.7352ZM183.333 34.8529L182.979 34.4995L182.979 34.4995L183.333 34.8529ZM204.249 13.9227L203.896 13.5692L203.895 13.5693L204.249 13.9227ZM207.827 12.5913L207.791 13.09L207.791 13.09L207.827 12.5913ZM210.567 13.761L210.231 14.1319L210.231 14.1319L210.567 13.761ZM210.731 13.9172L211.085 13.5637L211.084 13.5631L210.731 13.9172ZM210.737 13.9227L211.091 14.276L211.444 13.9224L211.09 13.5692L210.737 13.9227ZM191.724 35.2033L191.703 35.7029L191.923 35.7121L192.078 35.5567L191.724 35.2033ZM208.61 18.2946L208.26 17.938L208.256 17.9413L208.61 18.2946ZM187.404 35.0229L187.051 34.6695L186.246 35.475L187.384 35.5225L187.404 35.0229ZM206.37 16.044L206.02 15.6875L206.017 15.6906L206.37 16.044ZM206.371 16.0433L206.722 16.3999L206.724 16.3971L206.371 16.0433ZM208.516 15.9523L208.869 15.5987L208.854 15.5838L208.838 15.5702L208.516 15.9523ZM208.612 16.0481L208.965 15.6945L208.965 15.6945L208.612 16.0481ZM208.612 18.2931L208.962 18.6497L208.965 18.6467L208.612 18.2931ZM243.068 11.2613L243.602 10.7194L242.89 10.0173L242.356 10.5592L243.068 11.2613ZM217.684 36.63L243.066 11.2639L242.359 10.5566L216.977 35.9227L217.684 36.63ZM209.594 36.45L217.31 36.7759L217.352 35.7768L209.637 35.4509L209.594 36.45ZM238.892 5.96726L209.262 35.5969L209.969 36.304L239.599 6.67437L238.892 5.96726ZM243.609 5.95751C242.302 4.66117 240.193 4.66605 238.892 5.96726L239.599 6.67437C240.511 5.76241 241.989 5.7591 242.905 6.66748L243.609 5.95751ZM243.602 10.7194C244.905 9.39849 244.905 7.28037 243.614 5.96261L242.9 6.66238C243.809 7.59027 243.81 9.08468 242.89 10.0173L243.602 10.7194ZM218.541 38.8297L206.756 38.3319L206.713 39.331L218.499 39.8288L218.541 38.8297ZM245.033 12.1249L218.167 38.9756L218.873 39.6829L245.74 12.8323L245.033 12.1249ZM245.029 12.8278L245.033 12.8318L245.741 12.1254L245.737 12.1214L245.029 12.8278ZM245.031 4.55053C247.098 6.64732 247.098 10.0223 245.027 12.1235L245.739 12.8256C248.194 10.3354 248.194 6.33504 245.743 3.84846L245.031 4.55053ZM237.477 4.55305C239.562 2.46851 242.945 2.46492 245.033 4.55305L245.74 3.84594C243.261 1.36684 239.245 1.37132 236.77 3.84594L237.477 4.55305ZM205.898 36.1321L237.477 4.55305L236.77 3.84594L205.191 35.425L205.898 36.1321ZM203.017 39.013L205.898 36.1321L205.191 35.425L202.31 38.3059L203.017 39.013ZM206.756 38.3319L202.685 38.1599L202.643 39.159L206.713 39.331L206.756 38.3319ZM283.493 24.2172L283.489 24.2131L282.781 24.9194L282.785 24.9234L283.493 24.2172ZM283.417 38.1762C287.355 34.3826 287.411 28.0754 283.49 24.2141L282.788 24.9265C286.307 28.3921 286.257 34.0517 282.723 37.456L283.417 38.1762ZM243.521 78.0402L283.424 38.1698L282.717 37.4624L242.814 77.3328L243.521 78.0402ZM233.759 84.0558C237.44 82.837 240.779 80.7741 243.521 78.0406L242.815 77.3324C240.182 79.9569 236.977 81.9368 233.444 83.1065L233.759 84.0558ZM208.74 92.347L233.759 84.0558L233.444 83.1065L208.425 91.3978L208.74 92.347ZM197.685 94.4976C201.447 94.2527 205.165 93.5305 208.74 92.347L208.425 91.3977C204.932 92.5543 201.298 93.2604 197.62 93.4997L197.685 94.4976ZM156.499 97.1605L197.685 94.4976L197.62 93.4997L156.435 96.1625L156.499 97.1605ZM154.505 98.056C155.034 97.5265 155.746 97.2093 156.499 97.1605L156.435 96.1626C155.445 96.2267 154.503 96.6438 153.797 97.3489L154.505 98.056ZM151.486 101.075L154.505 98.056L153.797 97.3489L150.779 100.368L151.486 101.075ZM149.364 103.196L151.486 101.075L150.779 100.368L148.657 102.489L149.364 103.196ZM146.536 101.074L148.657 103.196L149.364 102.489L147.244 100.367L146.536 101.074ZM116.859 71.3824L146.536 101.074L147.244 100.367L117.566 70.6755L116.859 71.3824ZM114.738 69.2606L116.859 71.3824L117.566 70.6755L115.445 68.5537L114.738 69.2606ZM116.86 66.4329L114.738 68.5534L115.445 69.2608L117.567 67.1403L116.86 66.4329ZM136.251 47.0568L116.86 66.4329L117.567 67.1403L136.958 47.7642L136.251 47.0568ZM146.676 42.9937C142.774 42.7632 138.96 44.2467 136.244 47.0634L136.964 47.7575C139.477 45.1517 143.006 43.7786 146.617 43.992L146.676 42.9937ZM229.164 46.4752L146.668 42.9933L146.625 43.9924L229.122 47.4743L229.164 46.4752ZM236.311 52.9455C236.028 51.0331 235.22 49.4515 233.976 48.3261C232.731 47.2008 231.081 46.5604 229.165 46.4752L229.121 47.4742C230.836 47.5505 232.255 48.1184 233.305 49.0679C234.355 50.0174 235.068 51.377 235.322 53.0918L236.311 52.9455ZM229.623 61.0253C233.742 60.387 236.872 56.746 236.311 52.9457L235.322 53.0916C235.786 56.239 233.162 59.4649 229.47 60.0371L229.623 61.0253ZM171.019 70.0267L229.622 61.0254L229.471 60.037L170.867 69.0383L171.019 70.0267ZM168.434 73.4286C168.253 71.7576 169.408 70.2796 171.021 70.0264L170.866 69.0385C168.726 69.3744 167.202 71.3339 167.44 73.5363L168.434 73.4286ZM171.639 76.1663C170.05 76.239 168.611 75.0092 168.434 73.427L167.44 73.5379C167.675 75.6433 169.569 77.262 171.684 77.1652L171.639 76.1663ZM171.99 76.1333C171.858 76.1499 171.752 76.1628 171.646 76.166L171.677 77.1655C171.837 77.1607 171.989 77.1413 172.115 77.1256L171.99 76.1333ZM230.552 67.1299L171.977 76.1353L172.128 77.1237L230.704 68.1183L230.552 67.1299ZM242.435 52.0246C243.519 59.1541 238.194 65.9567 230.552 67.1299L230.704 68.1183C238.829 66.8708 244.599 59.6086 243.424 51.8743L242.435 52.0246ZM242.462 52.0561C242.434 51.9997 242.428 51.9461 242.432 51.9043L243.427 51.9947C243.439 51.8641 243.417 51.7298 243.357 51.6088L242.462 52.0561ZM269.632 24.4023L242.556 51.4789L243.263 52.186L270.339 25.1094L269.632 24.4023ZM270.581 23.5383C270.245 23.8077 269.924 24.0935 269.623 24.4123L270.349 25.0995C270.612 24.8211 270.897 24.5663 271.206 24.3192L270.581 23.5383ZM283.486 24.2101C280.011 20.7866 274.406 20.522 270.584 23.5362L271.203 24.3214C274.636 21.6145 279.674 21.8582 282.784 24.9224L283.486 24.2101ZM241.403 75.9157L281.303 36.0476L280.596 35.3402L240.696 75.2083L241.403 75.9157ZM232.816 81.2079C236.051 80.1365 238.989 78.3225 241.402 75.9161L240.696 75.2079C238.392 77.5053 235.589 79.2363 232.501 80.2585L232.816 81.2079ZM232.809 81.21L232.81 81.2098L232.507 80.2566L232.506 80.2569L232.809 81.21ZM207.797 89.499L232.815 81.2081L232.5 80.2588L207.482 88.5498L207.797 89.499ZM207.794 89.4998L207.795 89.4995L207.484 88.5492L207.483 88.5495L207.794 89.4998ZM197.492 91.5038C201 91.2754 204.465 90.602 207.796 89.4993L207.482 88.55C204.232 89.6258 200.85 90.283 197.427 90.5059L197.492 91.5038ZM197.491 91.5038L197.493 91.5038L197.426 90.506L197.424 90.5061L197.491 91.5038ZM156.306 94.1667L197.49 91.5039L197.426 90.506L156.241 93.1688L156.306 94.1667ZM156.305 94.1667L156.305 94.1667L156.241 93.1688L156.241 93.1688L156.305 94.1667ZM152.383 95.9347C153.439 94.8784 154.842 94.2616 156.305 94.1667L156.24 93.1688C154.54 93.279 152.908 93.9956 151.676 95.2276L152.383 95.9347ZM149.365 98.953L152.383 95.9347L151.676 95.2276L148.658 98.2459L149.365 98.953ZM118.981 69.2619L148.658 98.9529L149.365 98.246L119.688 68.5549L118.981 69.2619ZM138.371 49.1789L118.981 68.5547L119.688 69.2621L139.078 49.8863L138.371 49.1789ZM138.391 49.1593L138.371 49.1789L139.078 49.8862L139.098 49.8666L138.391 49.1593ZM138.404 49.1459L138.384 49.1659L139.104 49.8599L139.124 49.8399L138.404 49.1459ZM146.499 45.9885C143.47 45.8095 140.51 46.9617 138.404 49.1458L139.124 49.8399C141.026 47.8667 143.701 46.8249 146.44 46.9867L146.499 45.9885ZM146.524 45.99L146.499 45.9885L146.44 46.9867L146.465 46.9882L146.524 45.99ZM146.541 45.9906L146.516 45.9895L146.474 46.9886L146.499 46.9897L146.541 45.9906ZM229.031 49.4722L146.541 45.9906L146.499 46.9897L228.989 50.4713L229.031 49.4722ZM229.035 49.4724L229.032 49.4723L228.988 50.4713L228.991 50.4714L229.035 49.4724ZM231.964 50.5514C231.303 49.9545 230.348 49.5313 229.035 49.4724L228.99 50.4714C230.101 50.5212 230.826 50.8713 231.293 51.2932L231.964 50.5514ZM233.343 53.3845C233.148 52.0643 232.624 51.1489 231.964 50.5514L231.293 51.2932C231.76 51.7155 232.188 52.4093 232.354 53.5309L233.343 53.3845ZM229.165 58.0604C232.015 57.6181 233.612 55.2141 233.343 53.385L232.354 53.5304C232.53 54.7305 231.409 56.7002 229.012 57.0723L229.165 58.0604ZM229.164 58.0606L229.165 58.0604L229.012 57.0723L229.01 57.0725L229.164 58.0606ZM170.564 67.0614L229.163 58.0608L229.011 57.0724L170.412 66.073L170.564 67.0614ZM170.556 67.0627L170.565 67.0612L170.41 66.0733L170.4 66.0748L170.556 67.0627ZM165.452 73.7517C165.098 70.4866 167.363 67.5639 170.555 67.0627L170.4 66.0748C166.682 66.6586 164.046 70.0629 164.458 73.8594L165.452 73.7517ZM165.453 73.7599L165.452 73.7503L164.458 73.8607L164.459 73.8703L165.453 73.7599ZM171.756 79.164C168.595 79.2981 165.804 76.9047 165.453 73.7597L164.459 73.8706C164.868 77.5376 168.112 80.3195 171.798 80.1631L171.756 79.164ZM172.341 79.1129C172.226 79.1274 172.004 79.1552 171.759 79.1639L171.795 80.1633C172.088 80.1529 172.349 80.1198 172.466 80.1051L172.341 79.1129ZM172.363 79.1102L172.341 79.1129L172.465 80.1051L172.487 80.1024L172.363 79.1102ZM172.405 79.1049L172.363 79.1101L172.487 80.1024L172.529 80.0972L172.405 79.1049ZM172.433 79.1004L172.391 79.1068L172.543 80.0952L172.585 80.0888L172.433 79.1004ZM231.007 70.0952L172.433 79.1004L172.585 80.0888L231.159 71.0835L231.007 70.0952ZM231.01 70.0948L231.009 70.0949L231.157 71.0838L231.158 71.0837L231.01 70.0948ZM245.549 52.9664C246.061 61.3492 239.627 68.7714 231.008 70.0951L231.16 71.0835C240.238 69.6893 247.094 61.8548 246.548 52.9055L245.549 52.9664ZM271.754 26.5237L245.695 52.5824L246.402 53.2895L272.461 27.2308L271.754 26.5237ZM271.783 26.4941L271.754 26.5235L272.461 27.2309L272.49 27.2014L271.783 26.4941ZM271.802 26.4739L271.773 26.5042L272.5 27.1913L272.529 27.1611L271.802 26.4739ZM272.445 25.8896C272.196 26.089 271.986 26.2791 271.802 26.4739L272.529 27.1611C272.675 27.0062 272.85 26.8467 273.071 26.6695L272.445 25.8896ZM281.371 26.3385C278.992 24.0031 275.098 23.8021 272.449 25.8865L273.067 26.6725C275.327 24.8948 278.655 25.0737 280.671 27.0521L281.371 26.3385ZM281.38 26.3467L281.372 26.3387L280.671 27.0519L280.679 27.0598L281.38 26.3467ZM281.388 26.3544L281.383 26.3498L280.676 27.0566L280.68 27.0612L281.388 26.3544ZM281.336 36.0156C284.062 33.3898 284.1 29.0254 281.385 26.3515L280.683 27.064C282.996 29.3423 282.964 33.059 280.642 35.2953L281.336 36.0156ZM281.316 36.0344L281.336 36.0154L280.642 35.2955L280.622 35.3146L281.316 36.0344ZM281.303 36.0475L281.323 36.0281L280.616 35.3208L280.596 35.3402L281.303 36.0475ZM241.589 42.2702L239.507 44.3526L240.214 45.0597L242.296 42.9773L241.589 42.2702ZM273.893 9.96634L241.589 42.2702L242.296 42.9773L274.6 10.6735L273.893 9.96634ZM273.966 9.88586C273.943 9.9085 273.888 9.96158 273.84 10.0293L274.654 10.6105C274.648 10.6184 274.644 10.6218 274.647 10.6188C274.649 10.6172 274.651 10.6146 274.655 10.6102C274.66 10.6056 274.665 10.6006 274.672 10.5933L273.966 9.88586ZM273.956 9.89518L273.956 9.89557L274.682 10.5836L274.682 10.5832L273.956 9.89518ZM273.896 2.32482C276.003 4.39446 276.029 7.78574 273.963 9.8888L274.676 10.5896C277.129 8.09317 277.098 4.06874 274.597 1.61149L273.896 2.32482ZM266.332 2.38376C268.405 0.280534 271.789 0.254536 273.896 2.32482L274.597 1.61149C272.097 -0.845103 268.081 -0.814607 265.62 1.68167L266.332 2.38376ZM231.471 37.2447L266.329 2.38627L265.622 1.67916L230.764 36.5376L231.471 37.2447ZM229.843 38.8729L231.471 37.2447L230.764 36.5376L229.135 38.1658L229.843 38.8729ZM229.824 38.8912L229.842 38.873L229.136 38.1656L229.117 38.1838L229.824 38.8912ZM228.621 40.0942L229.824 38.891L229.117 38.1839L227.914 39.3871L228.621 40.0942ZM229.463 39.2812L228.285 39.2409L228.251 40.2403L229.429 40.2807L229.463 39.2812ZM232.256 39.6138C231.343 39.413 230.406 39.3002 229.456 39.281L229.436 40.2808C230.32 40.2986 231.192 40.4036 232.041 40.5905L232.256 39.6138ZM238.35 42.5911C236.585 41.1269 234.495 40.1061 232.256 39.6138L232.041 40.5905C234.124 41.0485 236.07 41.9985 237.712 43.3608L238.35 42.5911ZM240.194 44.4266C239.632 43.7551 239.014 43.1418 238.35 42.5911L237.712 43.3608C238.33 43.8731 238.904 44.4438 239.428 45.0686L240.194 44.4266ZM240.311 44.7557V44.7476H239.311V44.7557H240.311ZM239.465 44.3942L239.457 44.4023L240.165 45.1091L240.173 45.101L239.465 44.3942ZM239.507 44.3525L239.465 44.394L240.172 45.1012L240.214 45.0597L239.507 44.3525ZM240.141 40.8901L272.392 8.63886L271.685 7.93176L239.434 40.183L240.141 40.8901ZM234.421 38.1434C236.252 38.7633 237.963 39.7039 239.473 40.9253L240.102 40.1479C238.5 38.8519 236.684 37.8539 234.742 37.1962L234.421 38.1434ZM267.743 3.80048L234.228 37.3163L234.935 38.0234L268.45 4.50759L267.743 3.80048ZM267.751 3.79271L267.744 3.80021L268.45 4.50787L268.458 4.50037L267.751 3.79271ZM267.756 3.78786L267.748 3.79541L268.46 4.49768L268.468 4.49013L267.756 3.78786ZM272.495 3.75147C271.174 2.45377 269.054 2.47086 267.756 3.78795L268.468 4.49004C269.379 3.56591 270.866 3.5535 271.794 4.4648L272.495 3.75147ZM272.545 8.4774C273.829 7.16029 273.809 5.04262 272.495 3.75147L271.794 4.4648C272.715 5.36946 272.729 6.85618 271.829 7.77944L272.545 8.4774ZM272.443 8.58368C272.483 8.54002 272.523 8.49982 272.541 8.48186L271.834 7.77499C271.812 7.79715 271.761 7.84782 271.708 7.9053L272.443 8.58368ZM272.411 8.61879C272.422 8.60625 272.433 8.59449 272.443 8.58344L271.708 7.90554C271.695 7.91945 271.681 7.93492 271.666 7.95184L272.411 8.61879ZM103.443 70.9462L103.032 70.5425L102.331 71.2562L102.743 71.6599L103.443 70.9462ZM147.38 114.907L103.447 70.9496L102.739 71.6565L146.672 115.614L147.38 114.907ZM147.38 114.907L147.38 114.907L146.672 115.614L146.673 115.614L147.38 114.907ZM147.391 116.049C147.699 115.729 147.695 115.222 147.38 114.907L146.673 115.614C146.602 115.543 146.601 115.427 146.671 115.355L147.391 116.049ZM147.383 116.057L147.387 116.053L146.674 115.351L146.67 115.356L147.383 116.057ZM0.350535 260.611L147.377 116.063L146.676 115.35L-0.350535 259.897L0.350535 260.611ZM-0.5 260.254V264.461H0.5V260.254H-0.5ZM148.797 117.471L-0.350535 264.105L0.350535 264.818L149.498 118.184L148.797 117.471ZM148.794 113.493C149.894 114.593 149.894 116.374 148.794 117.474L149.501 118.181C150.992 116.691 150.992 114.276 149.501 112.786L148.794 113.493ZM106.554 71.2295L148.794 113.493L149.502 112.786L107.261 70.5226L106.554 71.2295ZM106.3 70.9758L106.554 71.2295L107.261 70.5226L107.008 70.2689L106.3 70.9758ZM104.433 69.1076L106.3 70.9758L107.008 70.2689L105.141 68.4007L104.433 69.1076ZM105.137 69.1108L105.14 69.1077L104.433 68.4006L104.43 68.4037L105.137 69.1108ZM105.139 69.1088L105.14 69.1078L104.427 68.4067L104.426 68.4076L105.139 69.1088ZM100.454 69.114C101.554 68.0279 103.323 68.0263 104.433 69.115L105.133 68.4013C103.636 66.9321 101.242 66.9305 99.7514 68.4024L100.454 69.114ZM0.350507 167.514L100.453 69.1148L99.7522 68.4016L-0.350507 166.801L0.350507 167.514ZM-0.5 167.158V171.364H0.5V167.158H-0.5ZM101.855 70.5411L-0.350506 171.008L0.350506 171.721L102.556 71.2542L101.855 70.5411ZM101.86 70.5368L101.855 70.5416L102.557 71.2537L102.562 71.2488L101.86 70.5368ZM103.032 70.5424C102.695 70.2121 102.175 70.2253 101.859 70.537L102.562 71.2485C102.492 71.3172 102.388 71.3117 102.331 71.2562L103.032 70.5424ZM211.086 20.768C213.073 18.7814 213.073 15.5598 211.086 13.5732L210.379 14.2803C211.975 15.8764 211.975 18.4648 210.379 20.0609L211.086 20.768ZM193.27 38.609L211.087 20.7678L210.379 20.0612L192.562 37.9024L193.27 38.609ZM184.503 38.4048L192.895 38.7553L192.937 37.7561L184.545 37.4057L184.503 38.4048ZM180.432 38.2348L184.503 38.4048L184.545 37.4057L180.474 37.2357L180.432 38.2348ZM182.979 34.4995L180.099 37.3818L180.806 38.0887L183.687 35.2064L182.979 34.4995ZM203.895 13.5693L182.979 34.4995L183.687 35.2064L204.603 14.2761L203.895 13.5693ZM207.863 12.0926C206.442 11.9895 204.983 12.4815 203.896 13.5692L204.603 14.2763C205.476 13.4026 206.647 13.007 207.791 13.09L207.863 12.0926ZM210.902 13.3901C210.033 12.6045 208.958 12.172 207.863 12.0926L207.791 13.09C208.671 13.1538 209.534 13.5011 210.231 14.1319L210.902 13.3901ZM211.084 13.5631C211.025 13.5037 210.964 13.446 210.902 13.3901L210.231 14.1319C210.281 14.1769 210.33 14.2234 210.378 14.2713L211.084 13.5631ZM211.09 13.5692L211.085 13.5637L210.378 14.2707L210.383 14.2762L211.09 13.5692ZM211.087 14.28L211.091 14.276L210.383 13.5694L210.379 13.5735L211.087 14.28ZM192.078 35.5567L208.964 18.6479L208.256 17.9413L191.37 34.85L192.078 35.5567ZM187.384 35.5225L191.703 35.7029L191.745 34.7038L187.425 34.5234L187.384 35.5225ZM206.017 15.6906L187.051 34.6695L187.758 35.3764L206.724 16.3975L206.017 15.6906ZM206.021 15.6868L206.02 15.6875L206.721 16.4006L206.722 16.3999L206.021 15.6868ZM208.838 15.5702C208.018 14.878 206.791 14.9176 206.018 15.6895L206.724 16.3971C207.127 15.9953 207.767 15.9743 208.193 16.3344L208.838 15.5702ZM208.965 15.6945L208.869 15.5987L208.162 16.3059L208.258 16.4016L208.965 15.6945ZM208.965 18.6467C209.78 17.8316 209.78 16.5096 208.965 15.6945L208.258 16.4016C208.683 16.8262 208.683 17.515 208.258 17.9396L208.965 18.6467ZM208.961 18.6511L208.962 18.6497L208.261 17.9366L208.26 17.938L208.961 18.6511Z" fill="black" mask="url(#path-1-inside-1_362_8973)"/>
</svg>
