<svg width="855" height="1018" viewBox="0 0 855 1018" fill="none" xmlns="http://www.w3.org/2000/svg">
<rect width="855" height="1017" fill="#1B1931"/>
<path fill-rule="evenodd" clip-rule="evenodd" d="M755.904 0L654.437 99.7568C653.142 101.052 653.142 103.149 654.437 104.444L698.802 148.826C700.105 150.104 702.187 150.104 703.482 148.826L854.884 0H755.904ZM520.45 193.018C523.743 196.262 529.064 196.516 532.691 193.655C532.838 193.537 532.982 193.417 533.121 193.293C533.287 193.145 533.446 192.99 533.599 192.828L560.675 165.751C560.66 165.719 560.651 165.679 560.656 165.635C559.526 158.202 565.074 151.17 572.956 149.96L631.532 140.954C631.597 140.946 631.663 140.938 631.729 140.931L631.841 140.922L631.923 140.918C633.776 140.833 635.442 142.258 635.648 144.102C635.857 146.038 634.518 147.757 632.642 148.052L574.039 157.053C570.132 157.658 567.256 161.092 567.768 164.565C568.305 168.192 570.811 170.447 574.442 170.609L656.938 174.091C660.695 174.312 664.366 172.885 666.981 170.173L688.494 148.677L654.574 114.741L649.434 119.881C648.817 120.499 647.99 120.866 647.118 120.922L605.932 123.585C602.212 123.827 598.537 124.541 595.002 125.711L569.984 134.003C566.376 135.197 563.104 137.218 560.417 139.897L520.514 179.768C516.779 183.366 516.726 189.35 520.45 193.018ZM558.203 205.109C555.939 207.405 555.939 211.093 558.198 213.385C560.482 215.668 564.181 215.664 566.461 213.385L600.921 178.925L585.065 178.255L558.203 205.109ZM592.848 203.661C594.639 205.452 597.544 205.452 599.335 203.661L623.132 179.849L610.669 179.328L592.852 197.169C591.061 198.961 591.061 201.865 592.848 203.661ZM529.338 207.265L563.774 172.837C566.348 175.911 570.128 177.723 574.139 177.803L575.317 177.844L537.609 215.552C535.341 217.852 531.642 217.879 529.338 215.616C527.035 213.353 527.006 209.645 529.265 207.345C529.293 207.316 529.318 207.292 529.338 207.265Z" fill="#F5574E"/>
<path fill-rule="evenodd" clip-rule="evenodd" d="M243.246 763.368L242.712 763.91L217.331 789.276L209.615 788.95L239.245 759.321C240.352 758.214 242.146 758.21 243.257 759.312C244.357 760.435 244.357 762.242 243.246 763.368ZM206.734 791.831L218.52 792.329L245.387 765.479L245.383 765.475C247.646 763.179 247.646 759.491 245.387 757.199C243.103 754.916 239.403 754.92 237.124 757.199L205.545 788.779L202.664 791.659L206.734 791.831ZM283.135 777.566L283.139 777.57C286.859 781.234 286.806 787.217 283.07 790.816L243.168 830.687C240.48 833.366 237.208 835.387 233.601 836.581L208.582 844.872C205.048 846.042 201.373 846.757 197.653 846.999L156.467 849.662C155.595 849.718 154.768 850.085 154.151 850.702L151.132 853.721L149.011 855.843L146.89 853.721L117.212 824.029L115.091 821.907L117.214 819.787L136.604 800.41C139.219 797.699 142.89 796.271 146.647 796.493L229.143 799.975C232.774 800.136 235.28 802.391 235.816 806.019C236.329 809.492 233.452 812.926 229.547 813.531L170.943 822.532C169.067 822.827 167.728 824.546 167.937 826.482C168.143 828.326 169.809 829.75 171.661 829.666C171.794 829.662 171.923 829.646 172.053 829.629L230.628 820.624C238.512 819.414 244.059 812.381 242.93 804.949C242.934 804.905 242.925 804.865 242.909 804.832L269.986 777.756C270.268 777.457 270.571 777.187 270.894 776.929C274.521 774.068 279.843 774.322 283.135 777.566ZM280.95 788.694L241.049 828.562C238.69 830.914 235.82 832.686 232.658 833.733L232.658 833.733L207.64 842.024L207.639 842.025C204.348 843.114 200.925 843.779 197.459 844.005L197.458 844.005L156.273 846.668L156.273 846.668C154.691 846.77 153.174 847.437 152.03 848.581L149.011 851.599L119.334 821.908L138.725 802.533L138.744 802.513L138.764 802.493C140.768 800.414 143.585 799.317 146.47 799.488L146.495 799.489L146.52 799.49L229.01 802.972L229.013 802.972C230.224 803.026 231.065 803.413 231.628 803.922C232.192 804.432 232.668 805.237 232.849 806.458C233.071 807.972 231.712 810.159 229.088 810.566L229.087 810.567L170.488 819.567L170.478 819.569C167.022 820.111 164.572 823.275 164.955 826.806L164.956 826.815C165.336 830.221 168.353 832.809 171.777 832.664C172.046 832.654 172.287 832.624 172.403 832.609L172.425 832.606L172.467 832.601L172.509 832.595L231.083 823.589L231.084 823.589C239.933 822.23 246.577 814.602 246.048 805.936L272.107 779.877L272.137 779.848L272.165 779.817C272.331 779.643 272.523 779.468 272.758 779.28C275.213 777.348 278.824 777.538 281.021 779.695L281.029 779.703L281.034 779.708C283.548 782.184 283.513 786.224 280.989 788.655L280.969 788.674L280.95 788.694ZM239.86 797.706L241.943 795.624L274.247 763.32C274.267 763.292 274.291 763.268 274.319 763.24L274.319 763.239C276.579 760.939 276.55 757.232 274.247 754.968C271.943 752.705 268.243 752.733 265.976 755.033L231.117 789.891L229.489 791.519L229.471 791.537L228.268 792.741L229.446 792.781C230.363 792.799 231.268 792.908 232.149 793.102C234.309 793.577 236.327 794.563 238.031 795.976C238.672 796.507 239.268 797.099 239.811 797.748V797.756L239.819 797.748L239.86 797.706ZM272.039 761.285L239.787 793.537C238.232 792.278 236.468 791.309 234.581 790.67L268.097 757.154L268.104 757.147L268.112 757.139C269.217 756.018 271.02 756.004 272.144 757.108C273.262 758.206 273.279 760.008 272.187 761.128C272.167 761.148 272.122 761.194 272.076 761.244C272.064 761.257 272.052 761.271 272.039 761.285ZM102.682 823.899L103.093 824.303L147.026 868.26L147.027 868.261C147.149 868.383 147.15 868.578 147.031 868.702L147.027 868.706L0 1013.25V1017.46L149.148 870.828C150.443 869.532 150.443 867.434 149.148 866.139L106.908 823.876L106.654 823.622L104.787 821.754L104.784 821.757L104.783 821.758C103.48 820.479 101.398 820.479 100.103 821.758L0 920.158V924.364L102.206 823.898L102.211 823.893C102.334 823.771 102.542 823.762 102.682 823.899ZM210.733 766.927C212.524 768.718 212.524 771.623 210.733 773.414L192.916 791.256L184.524 790.905L180.453 790.735L183.333 787.853L204.249 766.923C205.23 765.942 206.544 765.498 207.827 765.591C208.815 765.663 209.783 766.053 210.567 766.761C210.623 766.811 210.677 766.864 210.731 766.917L210.737 766.923L210.733 766.927ZM208.61 771.295L191.724 788.203L187.404 788.023L206.37 769.044L206.371 769.043C206.959 768.456 207.892 768.426 208.516 768.952L208.612 769.048C209.231 769.668 209.231 770.673 208.612 771.293L208.61 771.295Z" fill="#F5574E"/>
</svg>
