<svg width="308" height="100" viewBox="0 0 308 100" fill="none" xmlns="http://www.w3.org/2000/svg">
<path d="M108.082 20.4823C110.854 20.4823 113.203 19.5114 115.144 17.5697C117.18 15.6279 118.182 13.2321 118.182 10.3664C118.182 7.50078 117.164 5.05794 115.144 3.0379C113.203 1.00219 110.854 0 108.082 0C105.31 0 102.773 1.01785 100.753 3.0379C98.8117 5.0736 97.8408 7.51644 97.8408 10.3664C97.8408 13.2164 98.8117 15.6279 100.753 17.5697C102.789 19.5114 105.232 20.4823 108.082 20.4823Z" fill="#F5574E"/>
<path d="M305.608 63.3103C304.136 61.4625 301.646 60.5386 298.139 60.5386L230.887 60.0375C230.887 60.0375 230.84 60.0375 230.809 60.0375C230.057 60.0375 229.603 60.0375 229.196 60.0375C228.209 60.0062 227.223 60.1472 226.283 60.4447L221.131 62.0733C220.709 62.2142 220.254 62.1829 219.847 61.995L213.928 59.3172C212.3 58.5969 210.483 58.7848 209.042 59.834L206.772 61.4939C206.678 61.5565 206.553 61.5565 206.459 61.4939L204.392 59.9593C202.888 58.8474 200.9 58.6282 199.208 59.4112L193.164 62.1672C192.741 62.3551 192.35 62.3708 191.927 62.1829L188.059 60.476C187.417 60.1941 186.775 60.0532 186.102 60.0532L128.643 60.5543C123.867 60.5543 120.171 60.1315 117.603 59.3172C115.113 58.4873 113.36 57.3285 112.342 55.8565C111.418 54.2906 110.964 52.3958 110.964 50.1879C110.964 48.528 111.058 46.7742 111.246 44.9264C111.527 42.9846 111.794 41.0899 112.076 39.2577C112.42 37.5195 112.686 36.0006 112.874 34.6696C112.89 34.5286 112.796 34.4034 112.655 34.372L95.0539 31.4124C94.8973 31.3811 94.7564 31.4907 94.7407 31.6473C93.8325 37.9737 92.9242 43.0473 92.016 46.8681C91.1861 50.736 90.1212 53.6956 88.8372 55.7313C87.6314 57.673 85.9715 58.9571 83.8575 59.5991C81.8218 60.2411 79.0658 60.57 75.5581 60.57C75.5581 60.57 75.4485 60.57 75.3859 60.57C73.3502 60.57 71.3301 60.2411 69.2944 59.5991C67.2587 58.9571 65.4579 57.8453 63.892 56.2793C62.42 54.6194 61.3082 52.3175 60.5722 49.3579C59.8362 46.2261 58.5365 42.4365 56.7044 38.005C54.9505 33.5734 52.6486 28.7817 49.783 23.6141C46.9643 18.4309 43.5976 13.1851 39.6984 7.90789C39.6201 7.79827 39.4479 7.76695 39.3226 7.84525L23.3032 18.4779C23.1779 18.5562 23.1466 18.7284 23.2249 18.8537C24.7595 21.0147 26.4507 23.5358 28.3298 26.3858C30.3655 29.3454 32.2916 32.4303 34.1394 35.6561C35.9872 38.8819 37.5061 41.9824 38.7119 44.9264C39.9959 47.886 40.6536 50.4697 40.6536 52.6777C40.6536 54.0557 40.2308 55.3554 39.4009 56.5455C38.571 57.7513 37.052 58.7065 34.8284 59.4582C32.6204 60.1941 29.426 60.57 25.2762 60.57C22.6925 60.57 19.7798 60.1941 16.554 59.4582C13.5005 58.7378 10.306 57.673 6.98624 56.248C6.84531 56.1854 6.68871 56.248 6.62608 56.3889L0.0178693 73.4732C-0.0291084 73.5985 0.0178693 73.7551 0.143143 73.8177C2.75824 75.2427 5.63954 76.4015 8.78705 77.294C12.1068 78.2179 15.4266 78.9069 18.7463 79.3767C22.1601 79.8308 25.2449 80.0657 28.0166 80.0657C33.8262 80.0657 38.8528 79.4237 43.0965 78.124C47.4341 76.746 50.8948 74.9921 53.4786 72.8625C53.8857 72.518 54.2615 72.1891 54.6217 71.829C54.9349 72.2204 55.2324 72.6276 55.5456 72.9878C57.6753 75.3836 60.2434 77.1375 63.2969 78.2493C66.3348 79.3611 69.8895 79.9091 73.9609 79.9091C74.0235 79.9091 74.0705 79.9091 74.1331 79.9091C77.4529 79.9091 80.6317 79.6899 83.6853 79.2358C86.8171 78.86 89.7767 78.03 92.5484 76.746C95.3201 75.4619 97.8099 73.5202 100.018 70.9364C100.472 70.3727 100.926 69.7619 101.365 69.1356C101.819 70.2004 102.335 71.1869 102.931 72.0482C104.872 74.9138 107.816 76.9339 111.794 78.1397C115.755 79.3454 120.923 79.9405 127.296 79.9405C127.328 79.9405 127.359 79.9405 127.39 79.9405L181.733 79.4394C182.5 79.4394 183.252 79.6586 183.909 80.0814C184.771 80.6295 185.992 81.4124 186.587 81.8039C186.712 81.8822 186.744 82.0545 186.665 82.1641L185.851 83.4638C185.052 84.7479 184.755 86.3294 185.272 87.7544C185.616 88.694 186.258 89.4926 187.119 90.025C187.871 90.5105 188.717 90.7297 189.562 90.7297C189.75 90.7297 189.938 90.7297 190.126 90.6984C190.439 91.6692 191.081 92.5305 192.021 93.1099C192.757 93.5797 193.587 93.8146 194.448 93.8146C194.636 93.8146 194.824 93.8146 195.012 93.7832C195.341 94.7541 195.983 95.6154 196.907 96.2104C197.643 96.6645 198.488 96.9151 199.334 96.9151C199.522 96.9151 199.725 96.8994 199.913 96.8681C200.242 97.8703 200.9 98.7159 201.808 99.2953C202.544 99.7494 203.374 100 204.235 100C204.58 100 204.893 99.953 205.237 99.8747C206.459 99.5928 207.508 98.8255 208.181 97.7607L208.729 96.8838L210.452 97.839C211.391 98.3401 212.347 98.5906 213.255 98.5906C214.429 98.5906 215.541 98.1678 216.465 97.3536C216.496 97.3536 216.512 97.3066 216.543 97.2909C217.154 96.6802 217.545 95.9755 217.702 95.2082C217.827 94.6758 218.14 94.3 218.642 94.1121C219.331 93.8459 219.941 93.4231 220.427 92.875C220.912 92.3269 221.257 91.6692 221.429 90.9802C221.57 90.4165 221.977 89.9624 222.525 89.7432C223.198 89.4926 223.778 89.0698 224.248 88.5217C224.717 87.9893 225.046 87.3473 225.234 86.6739C225.391 86.0945 225.798 85.6404 226.346 85.4055C227.004 85.1393 227.599 84.7165 228.068 84.1841C228.789 83.3698 229.165 82.3676 229.212 81.3341L230.01 81.1932C231.169 80.974 232.171 80.3789 232.876 79.5333C232.923 79.4707 233.001 79.4394 233.079 79.4394L296.745 79.9405C300.331 79.9405 303.103 79.0166 305.045 77.1844C306.986 75.2427 307.957 72.8468 307.957 69.9812C307.957 67.3034 307.158 65.0955 305.593 63.3417L305.608 63.3103ZM190.58 86.7679C190.408 87.0498 190.142 87.2377 189.829 87.3003C189.515 87.3786 189.186 87.316 188.92 87.1594C188.654 86.9871 188.451 86.7053 188.388 86.3921C188.31 86.0789 188.372 85.75 188.544 85.4838L191.708 80.4572C191.88 80.191 192.146 80.0031 192.459 79.9248C192.553 79.9091 192.647 79.8935 192.741 79.8935C192.96 79.8935 193.18 79.9561 193.368 80.0814C193.649 80.2536 193.837 80.5199 193.9 80.8487C193.978 81.1619 193.916 81.4751 193.759 81.7569L190.58 86.7679ZM195.482 89.8684C195.309 90.1346 195.043 90.3226 194.73 90.3852C194.401 90.4635 194.088 90.4165 193.806 90.2443C193.242 89.8841 193.07 89.1324 193.43 88.5687L196.593 83.5421C196.766 83.2759 197.047 83.088 197.361 83.0097C197.455 82.994 197.549 82.994 197.627 82.994C197.862 82.994 198.081 83.041 198.269 83.1663C198.535 83.3385 198.723 83.6047 198.801 83.9336C198.864 84.2468 198.817 84.5599 198.645 84.8418L195.482 89.8684ZM200.367 92.9533C200.211 93.2195 199.929 93.4074 199.616 93.4701C199.302 93.5484 198.974 93.5014 198.707 93.3291C198.441 93.1569 198.253 92.8907 198.175 92.5618C198.097 92.2486 198.159 91.9198 198.331 91.6536L201.495 86.627C201.667 86.3608 201.933 86.1728 202.246 86.0945C202.575 86.0319 202.888 86.0789 203.17 86.2511C203.436 86.4234 203.624 86.6896 203.687 87.0184C203.765 87.3316 203.718 87.6605 203.546 87.9267L200.367 92.9533ZM208.432 91.0116L205.269 96.0382C204.908 96.6019 204.172 96.7585 203.593 96.414C203.327 96.2417 203.139 95.9755 203.076 95.6467C202.998 95.3335 203.045 95.0203 203.217 94.7385L206.396 89.7275C206.615 89.3517 207.007 89.1481 207.414 89.1481C207.633 89.1481 207.852 89.2107 208.056 89.336C208.322 89.5083 208.51 89.7745 208.588 90.1033C208.667 90.4165 208.604 90.7453 208.432 91.0116ZM302.758 74.7886C301.459 76.01 299.438 76.6207 296.761 76.6207L235.35 76.1196V76.0883L231.78 76.1196L283.09 76.6207V76.5894L279.504 76.6207L235.115 76.1196C232.876 76.2919 231.216 76.9182 230.292 77.3723C229.822 77.5916 228.757 77.9674 228.757 77.9674L228.256 78.0613C227.834 78.124 227.505 78.0614 227.145 77.8265L214.805 69.5897C213.975 69.026 213.036 68.7598 212.112 68.7598C211.188 68.7598 210.248 69.026 209.418 69.574C206.192 71.7194 203.499 72.0012 200.931 70.4196C200.774 70.3257 200.759 70.0751 200.915 69.9499L211.047 62.5117C211.501 62.1829 212.033 62.1202 212.55 62.3551L218.579 65.0798C219.706 65.5966 220.881 65.6592 222.055 65.2834L225.86 64.0776L227.505 63.5609C228.021 63.4043 228.554 63.3103 229.102 63.3103L280.882 63.8114L283.951 63.8427V63.8114L233.158 63.3103L236.227 63.3417V63.3103L298.139 63.8114C300.582 63.8114 302.226 64.3282 303.04 65.346L303.103 65.4243L303.165 65.487C304.183 66.6301 304.684 68.0864 304.684 69.9342C304.684 71.9229 304.074 73.4575 302.758 74.7729V74.7886Z" fill="#F5574E"/>
</svg>
