<svg width="338" height="218" viewBox="0 0 338 218" fill="none" xmlns="http://www.w3.org/2000/svg">
<path fill-rule="evenodd" clip-rule="evenodd" d="M238.904 0L137.437 99.7568C136.142 101.052 136.142 103.149 137.437 104.444L181.802 148.826C183.105 150.104 185.187 150.104 186.482 148.826L337.884 0H238.904ZM3.44964 193.018C6.7426 196.262 12.0639 196.516 15.6908 193.655C15.8383 193.537 15.9819 193.417 16.1205 193.293C16.2865 193.145 16.4457 192.99 16.599 192.828L43.6752 165.751C43.6596 165.719 43.6508 165.679 43.6557 165.635C42.5258 158.202 48.0737 151.17 55.9565 149.96L114.532 140.954C114.597 140.946 114.663 140.938 114.729 140.931L114.841 140.922L114.923 140.918C116.776 140.833 118.442 142.258 118.648 144.102C118.857 146.038 117.518 147.757 115.642 148.052L57.0385 157.053C53.1323 157.658 50.2563 161.092 50.768 164.565C51.3051 168.192 53.811 170.447 57.4418 170.609L139.938 174.091C143.695 174.312 147.366 172.885 149.981 170.173L171.494 148.677L137.574 114.741L132.434 119.881C131.817 120.499 130.99 120.866 130.118 120.922L88.9321 123.585C85.2123 123.827 81.5366 124.541 78.0024 125.711L52.9838 134.003C49.3764 135.197 46.1039 137.218 43.4174 139.897L3.51409 179.768C-0.221263 183.366 -0.273997 189.35 3.44964 193.018ZM41.2026 205.109C38.9389 207.405 38.9389 211.093 41.1977 213.385C43.4819 215.668 47.1811 215.664 49.4614 213.385L83.9213 178.925L68.0649 178.255L41.2026 205.109ZM75.8481 203.661C77.6391 205.452 80.5444 205.452 82.3354 203.661L106.132 179.849L93.6694 179.328L75.852 197.169C74.061 198.961 74.061 201.865 75.8481 203.661ZM12.3383 207.265L46.7739 172.837C49.3481 175.911 53.1283 177.723 57.1391 177.803L58.3168 177.844L20.6088 215.552C18.3412 217.852 14.642 217.879 12.3383 215.616C10.0346 213.353 10.0063 209.645 12.2651 207.345C12.2934 207.316 12.3178 207.292 12.3383 207.265Z" fill="#F5574E"/>
</svg>
