<svg width="60" height="60" viewBox="0 0 60 60" fill="none" xmlns="http://www.w3.org/2000/svg">
<path d="M51.2093 51.2093C62.9242 39.4945 62.9242 20.501 51.2093 8.78613C39.4945 -2.92871 20.501 -2.92871 8.78613 8.78613C-2.92871 20.501 -2.92871 39.4945 8.78613 51.2093C20.501 62.9242 39.4945 62.9242 51.2093 51.2093Z" fill="#C4C4C4"/>
<path fill-rule="evenodd" clip-rule="evenodd" d="M32.8135 0.127366C48.066 1.54373 60.007 14.3753 60.007 29.9978C60.007 45.6203 48.066 58.4518 32.8135 59.8681C17.561 58.4518 5.61994 45.6203 5.61994 29.9978C5.61994 14.3753 17.561 1.54373 32.8135 0.127366Z" fill="white"/>
<path fill-rule="evenodd" clip-rule="evenodd" d="M35.7335 39.6799C41.3054 33.8357 41.2593 29.0183 41.2764 23.0306C41.295 16.5042 35.8292 13.3384 30.0047 13.5537C24.1801 13.3386 18.7144 16.5044 18.7331 23.0306C18.7502 29.0183 18.7041 33.8357 24.2759 39.6799V43.1511C24.2759 44.0373 23.8652 44.8498 23.0701 45.2394C17.3673 48.0342 12.6821 49.4051 9.77796 52.1568C15.1121 57.0286 22.2114 60 30.0047 60C37.798 60 44.8973 57.0286 50.2315 52.1569C47.3274 49.4051 42.6423 48.0343 36.9393 45.2395C36.1441 44.85 35.7335 44.0374 35.7335 43.1512V39.6799Z" fill="#B74531"/>
<path fill-rule="evenodd" clip-rule="evenodd" d="M35.7335 39.6799C41.3054 33.8357 41.2593 29.0183 41.2764 23.0306C41.293 17.2095 36.9464 14.0621 31.8737 13.6025C26.801 14.0621 22.4544 17.2095 22.471 23.0306C22.4881 29.0183 22.442 33.8357 28.0138 39.6799V43.1511C28.0138 44.0373 27.603 44.8498 26.808 45.2394C21.7614 47.7125 15.8126 51.52 12.6748 54.4916C17.5692 57.961 23.5489 60 30.0047 60C37.798 60 44.8973 57.0286 50.2315 52.1569C47.3274 49.4051 42.6423 48.0343 36.9393 45.2395C36.1441 44.85 35.7335 44.0374 35.7335 43.1512V39.6799Z" fill="#F5574E"/>
</svg>
